<svg xmlns="http://www.w3.org/2000/svg" width="800" height="200" viewBox="0 0 800 200">
  <defs>
    <linearGradient id="bg" x1="0" y1="0" x2="1" y2="1">
      <stop offset="0%" stop-color="#0a0d12"/>
      <stop offset="100%" stop-color="#0f1318"/>
    </linearGradient>
    <linearGradient id="line" x1="0" y1="0" x2="1" y2="0">
      <stop offset="0%" stop-color="#4FC3F7" stop-opacity="0"/>
      <stop offset="50%" stop-color="#4FC3F7" stop-opacity="1"/>
      <stop offset="100%" stop-color="#4FC3F7" stop-opacity="0"/>
    </linearGradient>
  </defs>
  <rect width="800" height="200" fill="url(#bg)" rx="8"/>
  <rect x="20" y="20" width="760" height="160" fill="none" stroke="rgba(79,195,247,0.15)" stroke-width="1" rx="6"/>
  <g transform="translate(350, 70)">
    <path d="M50 5L15 20v25c0 20 15 34 35 40 20-6 35-20 35-40V20L50 5z" fill="rgba(79,195,247,0.12)" stroke="#4FC3F7" stroke-width="2"/>
    <path d="M50 20L30 30v15c0 12 9 20 20 24 11-4 20-12 20-24V30L50 20z" stroke="rgba(79,195,247,0.5)" stroke-width="1" fill="none"/>
    <circle cx="50" cy="45" r="3" fill="#4FC3F7"/>
  </g>
  <text x="400" y="140" font-family="monospace" font-size="22" font-weight="700" fill="#ffffff" text-anchor="middle" letter-spacing="4">THYREOS LITE</text>
  <text x="400" y="165" font-family="monospace" font-size="11" fill="#4a5568" text-anchor="middle" letter-spacing="2">RSA-4096 · ECDSA P-256 · AES-256-GCM</text>
  <line x1="200" y1="180" x2="600" y2="180" stroke="url(#line)" stroke-width="1"/>
</svg>